<?xml version="1.0" encoding="UTF-8"?> <svg xmlns="http://www.w3.org/2000/svg" viewBox="0 0 85 85"><defs><style>.cls-1{fill:#a0001f;}.cls-2{fill:#002760;}.cls-3{fill:#fff;}.cls-4,.cls-5{fill:none;}.cls-4{stroke:#fff;stroke-miterlimit:10;stroke-width:1.01px;}</style></defs><g id="Layer_2" data-name="Layer 2"><g id="Layer_1-2" data-name="Layer 1"><circle class="cls-1" cx="42.5" cy="42.5" r="42"></circle><circle class="cls-2" cx="42.5" cy="42.5" r="37.94"></circle><path id="Student_Veterans" data-name="Student Veterans" class="cls-3" d="M74.31,30.74l-1.48.61-.11-.27.06,0a1.06,1.06,0,0,0,.57-1.39.59.59,0,0,0-.76-.38c-.31.13-.38.39-.45,1.11l-.06.79a1.41,1.41,0,0,1-.81,1.23,1.42,1.42,0,0,1-.53.1,1.46,1.46,0,0,1-1.34-.95,2.32,2.32,0,0,1-.13-1.13v-.06a.85.85,0,0,0-.3-.05h0l-.1-.25,1.61-.66.12.27-.07,0a1.28,1.28,0,0,0-.65,1.67.74.74,0,0,0,1,.52c.36-.15.42-.51.47-1.08l.06-.8a1.44,1.44,0,0,1,.88-1.28,1.23,1.23,0,0,1,1.59.76,1.59,1.59,0,0,1,.09,1,.5.5,0,0,0,.27.05h0ZM24.69,16.46a2.23,2.23,0,0,1,.53,1.66,2.6,2.6,0,0,1-1.1,1.73l-1.69,1.34-.2-.24.07-.05c.44-.35.44-.45,0-1L20.8,18c-.44-.55-.54-.58-1-.23l-.06,0-.19-.24,1.69-1.34a2.62,2.62,0,0,1,1.94-.68A2.21,2.21,0,0,1,24.69,16.46Zm-.84,3a1.51,1.51,0,0,0,.68-1.32A2.15,2.15,0,0,0,24,17a1.6,1.6,0,0,0-2.47-.41L21,17l1.82,2.29c.45.58.54.57.94.25Zm5.3-4.27.05.2c.09.34.14.51-.44.83l-.53.29c-.27.15-.4.19-.51.15s-.24-.22-.41-.51l-.48-.87.23-.13c.62-.35.71-.34,1,.16l0,.07.27-.16-.89-1.6-.27.15,0,.07c.28.49.25.57-.38.92l-.23.13-.73-1.32.86-.48c.58-.32.7-.19.93,0l.15.16.26-.15-.63-1L24.37,14l.15.27.07,0c.48-.27.57-.26.93.38l1.17,2.1c.34.62.33.72-.16,1l-.07,0,.15.28,3.3-1.84-.5-1Zm-8.77,5.61L19,19.67c-.24-.21-.4-.37-.42-.51s0-.24.25-.48l.05-.06-.24-.2-1.25,1.45.23.2.05-.06c.36-.41.46-.44,1,0l1.37,1.19a1.39,1.39,0,0,1,.51.93,1.31,1.31,0,0,1-.34.88,1.17,1.17,0,0,1-.8.43,1.42,1.42,0,0,1-1-.39l-1.37-1.2c-.25-.22-.4-.37-.43-.51s.05-.24.25-.47l.05-.06-.23-.2-1.44,1.64.24.21,0-.06c.21-.23.32-.32.44-.31s.31.13.56.35l1.34,1.17a1.89,1.89,0,0,0,1.23.5h.18a2,2,0,0,0,1.21-.67A1.77,1.77,0,0,0,20.38,20.84Zm-5.27,8.24a1.39,1.39,0,0,0-1.44.29l-.61.5c-.55.47-.79.6-1.1.46a.57.57,0,0,1-.26-.8A1.06,1.06,0,0,1,13.09,29h.06l.12-.26-1.48-.63-.1.24,0,0a.56.56,0,0,1,.16.23,1.45,1.45,0,0,0-.62.73A1.23,1.23,0,0,0,11.84,31a1.41,1.41,0,0,0,1.53-.28L14,30.2c.44-.37.73-.58,1.09-.43a.76.76,0,0,1,.31,1.05,1.28,1.28,0,0,1-1.65.71l-.07,0-.11.27,1.61.68.1-.24,0,0a.85.85,0,0,1-.17-.25l0,0a2.34,2.34,0,0,0,.72-.88,1.61,1.61,0,0,0,.05-1.12A1.36,1.36,0,0,0,15.11,29.08Zm2.65-2.66c-.15.26-.26.37-.38.39a1.37,1.37,0,0,1-.62-.25L14.14,25l.34-.56c.34-.56.5-.51.83-.41l.2.06.15-.26-1-.52-2.16,3.59.95.66.15-.26-.15-.15c-.24-.24-.36-.36,0-.93l.33-.55,2.62,1.57c.6.36.64.47.35,1l0,.07.27.16,1.13-1.89-.27-.16Zm15.5-16c.05-.12.16-.19.46-.3l.07,0-.1-.3-1.78.63.1.3.07,0c.3-.1.44-.12.54-.06s.2.27.32.59l.71,2L30,11.08l-1.1.39.11.29.07,0c.52-.18.61-.16.85.53l.8,2.27c.24.67.21.77-.32,1l-.08,0,.11.29,1.78-.63-.1-.29-.08,0c-.29.11-.43.12-.54.06s-.21-.28-.32-.59l-.75-2.12,3.84,2.29.27-.09-1.2-3.4A1.21,1.21,0,0,1,33.26,10.41ZM72.31,27.12l0,.06.27-.16-1-1.61-.27.16,0,.07c.17.26.21.4.17.51s-.22.26-.5.43L69.24,27.7l1.34-3.95v0l-.6-1-.27.16,0,.07c.29.47.29.56-.34.94l-2,1.26c-.6.37-.71.36-1-.12l0-.07-.27.17,1,1.61.27-.17,0-.06c-.3-.49-.27-.58.34-.95l1.92-1.18L68.1,28.62l.15.25L71.31,27C71.93,26.6,72,26.65,72.31,27.12ZM34.74,9.56l.12,1.15.29-.05,0-.22c0-.34,0-.51.69-.62l.64-.11.51,3a1.15,1.15,0,0,1,0,.67c-.06.1-.19.16-.5.21h-.08l.06.31,2.17-.37-.06-.31-.07,0c-.56.09-.64,0-.76-.68l-.52-3,.64-.11c.65-.11.72,0,.86.36l.09.19.29,0-.27-1.12ZM66.26,24.85l-.23.21-1.5-1.68.24-.2,0,.05c.21.24.36.34.46.33s.14-.09.21-.25l.36-.76-1.1-1.23-.79.27c-.16.06-.25.12-.27.19s.06.26.27.49l.05.06-.23.21-1.27-1.43.23-.21,0,.06c.37.41.44.39.93.23l.06,0,3.88-1.29.18.2,0,.05L66.1,23.85c-.22.47-.25.54.11.94ZM66,22.11l.7-1.45-1.53.52Zm-3.42-1.28-.19.23-1-.82,0-2.44-.18-.15-.52.67a1.18,1.18,0,0,0-.33.59c0,.11.09.23.33.42l.06.05-.19.24-1.72-1.35.19-.25.06.05c.45.35.55.33,1-.23L61.6,16c.21-.27.33-.45.33-.58s-.09-.23-.33-.42l-.06,0,.19-.25,1.62,1.28A1.43,1.43,0,0,1,63.84,18a1.35,1.35,0,0,1-1.79.25l0,1a2.38,2.38,0,0,0,.48,1.54ZM62,17.67h0a.89.89,0,0,0,1.1-1.4l-.45-.36-1.1,1.41Zm-3.28-.87-.15.16c-.23.25-.35.38-.93.06l-.53-.3c-.27-.15-.38-.25-.4-.36a1.27,1.27,0,0,1,.23-.62l.48-.87.23.13c.63.35.66.43.39.92L58,16l.27.15.9-1.6-.28-.15,0,.06c-.16.28-.25.38-.37.4a1.21,1.21,0,0,1-.62-.24l-.23-.12.73-1.32.87.48c.57.32.53.49.44.82l0,.21.26.14.49-1-3.08-1.72-.16.27.07,0c.28.15.38.25.4.36a1.23,1.23,0,0,1-.23.63l-1.17,2.1c-.16.29-.29.48-.42.53s-.25,0-.52-.14l-.06,0-.16.27,3.31,1.84L59,17Zm-4.16-5.38.61.22c.61.23.6.4.56.74l0,.21.28.11.32-1.1-3.92-1.47-.48,1,.28.11.12-.18c.2-.28.3-.42.91-.19l.61.23L52.73,14a1.13,1.13,0,0,1-.33.58c-.1.06-.25.05-.54-.06l-.07,0-.11.29,2.07.77.1-.29-.07,0c-.53-.2-.56-.29-.32-1ZM46.92,9.23l0-.31L45,8.82v.31h.07c.31,0,.49.07.54.16s0,.17-.06.32l-1.28,2.6-1-2.72q-.09-.24,0-.33c.06-.08.24-.11.56-.1h.07l0-.31-2.23-.13,0,.31h.08c.53,0,.56.1.73.57l1.45,3.9.27,0L46,9.78v0c.24-.48.28-.55.83-.52Zm.64.14.08,0c.31.06.43.12.49.23a1.19,1.19,0,0,1,0,.66l-.5,2.36a1.24,1.24,0,0,1-.24.62c-.09.08-.24.08-.54,0l-.08,0-.06.31,3.7.79.31-1.12-.29-.06-.1.19c-.15.31-.23.47-.87.33l-.6-.13c-.53-.11-.6-.17-.45-.88l.21-1,.26,0c.34.07.54.13.62.24s.08.22,0,.53v.08l.3.06.38-1.8-.3-.06,0,.07c-.06.31-.12.44-.22.49a1.23,1.23,0,0,1-.67,0l-.26-.06L49,9.81,50,10c.65.13.65.31.67.65v.21l.29.06.16-1.14-3.45-.73Z"></path><path id="Of_America" data-name="Of America" class="cls-3" d="M26.92,66.62l3.19,1.78-.5,1-.26-.15,0-.2c.09-.33.13-.5-.43-.82l-1-.54L27.26,69l.23.13c.62.35.71.33,1-.17l0-.07.27.15-.91,1.63-.27-.15,0-.07c.28-.5.24-.59-.38-.93L27,69.43l-.54,1c-.17.31-.26.51-.22.65s.13.2.38.34l.07,0-.15.27-1.91-1.07.15-.27.07,0c.49.27.59.23.93-.38L27,67.92c.16-.29.26-.49.23-.63s-.12-.21-.39-.36l-.07,0Zm-3.76,2.43a2.67,2.67,0,0,1-1.66-.6,2.47,2.47,0,0,1-.45-3.5h0a2.31,2.31,0,0,1,1.64-.87,2.57,2.57,0,0,1,1.87.6A2.46,2.46,0,0,1,25,68.17,2.36,2.36,0,0,1,23.16,69.05Zm1.18-1.43a2.35,2.35,0,0,0,.53-1.27,1.5,1.5,0,0,0-.6-1.32,1.55,1.55,0,0,0-1-.38,2.17,2.17,0,0,0-1.56.85,2.32,2.32,0,0,0-.53,1.27,1.55,1.55,0,0,0,.6,1.32A1.78,1.78,0,0,0,24.34,67.62Zm11.27,7.2.08,0-.09.3-2.15-.64.09-.29.07,0c.3.09.48.1.56,0s.08-.15,0-.33l-.1-.83-1.57-.46-.53.64c-.11.13-.15.23-.13.3s.19.19.48.28l.08,0-.09.3-1.83-.54.08-.3.08,0c.53.16.58.1.91-.29l0,0,2.61-3.14.26.08L35,74.08C35.08,74.59,35.09,74.67,35.61,74.82ZM33.88,71l-1,1.24,1.2.36Zm19.24,2.76.07.29-1.29.34L50,72.9l-.23.06.22.82a1.16,1.16,0,0,0,.26.61c.1.07.24.07.54,0h.07l.08.3-2.11.54-.08-.3.07,0c.55-.14.59-.23.41-.92l-.6-2.33c-.08-.33-.15-.53-.27-.61s-.23-.07-.53,0l-.08,0-.08-.3,2-.52c1.12-.29,1.79.23,2,.87a1.33,1.33,0,0,1-.88,1.57l.8.57a2.4,2.4,0,0,0,1.52.55Zm-2.3-2.47a.93.93,0,0,0-.36-.57.85.85,0,0,0-.69-.08l-.56.14.45,1.73.55-.14A.8.8,0,0,0,50.82,71.32Zm8.83-2.45,0,.06a1.55,1.55,0,0,1-.61,2,1.32,1.32,0,0,1-1.33,0,2.4,2.4,0,0,1-.95-1,1.68,1.68,0,0,1,.35-2.43,1.56,1.56,0,0,1,2,.48l0,0,.25-.14-.89-1.55-.23.13,0,.06a.8.8,0,0,1,0,.34,2,2,0,0,0-1.51.22,2.28,2.28,0,0,0-1.12,1.46,2.54,2.54,0,0,0,1.7,3,2.16,2.16,0,0,0,.66.1,2.37,2.37,0,0,0,1.17-.32,2,2,0,0,0,.95-1.19.73.73,0,0,1,.28.19l0,0,.24-.13-.89-1.56ZM39.5,74.49l-1.25-3.61-1.46-.14,0,.31h.08c.56,0,.62.14.55.84l-.22,2.39c-.07.71-.14.78-.7.73h-.08l0,.31,1.88.18,0-.31H38.2c-.31,0-.45-.07-.52-.17a1.3,1.3,0,0,1,0-.67l.21-2.27,1.24,3.57.26,0,1.88-3.28L41,74.65c-.07.71-.14.78-.7.73h-.08l0,.31,2.18.21,0-.31h-.08c-.56,0-.62-.14-.56-.85L42,72.33c.07-.71.13-.78.7-.72h.08l0-.31-1.42-.14Zm26.23-8L64,67.87l-.2-.24.06,0c.24-.2.35-.34.34-.44s-.09-.15-.24-.23l-.75-.38-1.26,1,.24.8c.05.16.1.25.18.27s.26-.05.5-.24l.06,0,.19.24-1.47,1.22-.19-.24.06,0c.42-.35.4-.43.25-.92v-.06l-1.15-3.92.21-.18,3.7,1.88c.46.23.53.27,1-.08l.06,0Zm-4.38-.87.47,1.55,1-.8Zm-5.56,7.09c-.52.21-.61.16-.88-.49L54,69.93c-.12-.31-.19-.52-.14-.65s.14-.19.43-.31l.08,0-.12-.28-2,.81.12.29.07,0c.51-.2.6-.19.87.49l.9,2.24a1.13,1.13,0,0,1,.15.65c0,.11-.15.2-.43.31l-.07,0,.11.29,2-.82-.12-.28ZM47.14,74.3l0,.21c0,.34-.08.51-.73.58l-.61,0c-.54,0-.63,0-.69-.7l-.1-1,.26,0c.72-.07.79,0,.84.54V74l.31,0-.18-1.83-.31,0v.08c0,.31,0,.45-.07.53a1.24,1.24,0,0,1-.65.16l-.26,0-.14-1.49,1-.1c.65-.06.71.1.83.42l.07.2.3,0-.19-1.14-3.51.33,0,.31h.08c.31,0,.45,0,.53.07a1.13,1.13,0,0,1,.16.64l.23,2.4c.07.71,0,.79-.55.85h-.07l0,.3,3.77-.35,0-1.16Z"></path><path id="SVA" class="cls-3" d="M23.59,55.41a9.85,9.85,0,0,1-5.19-1.69,3.77,3.77,0,0,0-1,1.52h-.85V47.88h1c.41,2.85,2.68,5.67,6,5.67,2.3,0,3.54-1.27,3.54-3.09s-2-2.85-3.81-3.81L20.5,45.2a6.45,6.45,0,0,1-3.68-5.94,5.64,5.64,0,0,1,5.81-5.64,6.31,6.31,0,0,1,4,1.41,3.11,3.11,0,0,0,1-1.41h.83v6.57h-1c-.38-2.62-2-4.75-4.81-4.75A2.56,2.56,0,0,0,20,38c0,1.58,1.27,2.41,4,3.85l2.58,1.37a6.31,6.31,0,0,1,3.61,5.6A6.22,6.22,0,0,1,23.59,55.41ZM50.12,38.19,43.55,55h-2l-6.6-16.81c-.93-2.37-1.51-3-3.92-3v-1H41.8v1c-2.92,0-3.23.69-2.51,2.62L43.83,49.6l4.5-11.78c.72-2,.38-2.62-2.48-2.62v-1h8.22v1C51.83,35.2,51.08,35.75,50.12,38.19ZM60.56,54.82v-1c2.95,0,3.26-.66,2.51-2.61l-1.2-3.1H55.06l-1.17,3.1c-.75,2-.37,2.61,2.48,2.61v1H48.26v-1c2.2,0,3-.55,4-3L58.74,34H60.8l6.6,16.8c.93,2.37,1.48,3,3.88,3v1Zm-2-15.7-2.82,7.39h5.54Z"></path><circle class="cls-4" cx="42.5" cy="42.5" r="37.94"></circle><rect class="cls-5" width="85" height="85"></rect></g></g></svg> 